<svg width="35" height="35" viewBox="0 0 35 35" fill="none" xmlns="http://www.w3.org/2000/svg">
<path d="M17.5 24.7916C17.9132 24.7916 18.2598 24.6516 18.5398 24.3716C18.8198 24.0916 18.9593 23.7455 18.9583 23.3333C18.9583 22.9201 18.8183 22.5735 18.5383 22.2935C18.2583 22.0135 17.9122 21.874 17.5 21.875C17.0868 21.875 16.7402 22.015 16.4602 22.295C16.1802 22.575 16.0407 22.9211 16.0417 23.3333C16.0417 23.7465 16.1817 24.0931 16.4617 24.3731C16.7417 24.6531 17.0878 24.7926 17.5 24.7916ZM17.5 18.9583C17.9132 18.9583 18.2598 18.8183 18.5398 18.5383C18.8198 18.2583 18.9593 17.9122 18.9583 17.5V11.6666C18.9583 11.2534 18.8183 10.9068 18.5383 10.6268C18.2583 10.3468 17.9122 10.2073 17.5 10.2083C17.0868 10.2083 16.7402 10.3483 16.4602 10.6283C16.1802 10.9083 16.0407 11.2544 16.0417 11.6666V17.5C16.0417 17.9132 16.1817 18.2598 16.4617 18.5398C16.7417 18.8198 17.0878 18.9593 17.5 18.9583ZM17.5 32.0833C15.4826 32.0833 13.5868 31.7002 11.8125 30.9341C10.0382 30.168 8.49478 29.1292 7.18228 27.8177C5.86978 26.5052 4.83096 24.9618 4.06582 23.1875C3.30068 21.4132 2.91763 19.5173 2.91666 17.5C2.91666 15.4826 3.29971 13.5868 4.06582 11.8125C4.83193 10.0382 5.87075 8.49475 7.18228 7.18225C8.49478 5.86975 10.0382 4.83093 11.8125 4.06579C13.5868 3.30065 15.4826 2.9176 17.5 2.91663C19.5174 2.91663 21.4132 3.29968 23.1875 4.06579C24.9618 4.8319 26.5052 5.87072 27.8177 7.18225C29.1302 8.49475 30.1695 10.0382 30.9356 11.8125C31.7017 13.5868 32.0843 15.4826 32.0833 17.5C32.0833 19.5173 31.7003 21.4132 30.9342 23.1875C30.168 24.9618 29.1292 26.5052 27.8177 27.8177C26.5052 29.1302 24.9618 30.1695 23.1875 30.9356C21.4132 31.7017 19.5174 32.0843 17.5 32.0833ZM17.5 29.1666C20.7569 29.1666 23.5156 28.0364 25.776 25.776C28.0364 23.5156 29.1667 20.7569 29.1667 17.5C29.1667 14.243 28.0364 11.4843 25.776 9.22392C23.5156 6.9635 20.7569 5.83329 17.5 5.83329C14.243 5.83329 11.4844 6.9635 9.22395 9.22392C6.96353 11.4843 5.83332 14.243 5.83332 17.5C5.83332 20.7569 6.96353 23.5156 9.22395 25.776C11.4844 28.0364 14.243 29.1666 17.5 29.1666Z" fill="#911A33"/>
</svg>
