<svg width="6" height="22" viewBox="0 0 6 22" fill="none" xmlns="http://www.w3.org/2000/svg">
<path d="M3.125 4.25C3.74632 4.25 4.25 3.74632 4.25 3.125C4.25 2.50368 3.74632 2 3.125 2C2.50368 2 2 2.50368 2 3.125C2 3.74632 2.50368 4.25 3.125 4.25Z" stroke="#A2A2A2" stroke-width="2.25" stroke-linecap="round" stroke-linejoin="round"/>
<path d="M3.125 12.5C3.74632 12.5 4.25 11.9963 4.25 11.375C4.25 10.7537 3.74632 10.25 3.125 10.25C2.50368 10.25 2 10.7537 2 11.375C2 11.9963 2.50368 12.5 3.125 12.5Z" stroke="#A2A2A2" stroke-width="2.25" stroke-linecap="round" stroke-linejoin="round"/>
<path d="M3.125 20.75C3.74632 20.75 4.25 20.2463 4.25 19.625C4.25 19.0037 3.74632 18.5 3.125 18.5C2.50368 18.5 2 19.0037 2 19.625C2 20.2463 2.50368 20.75 3.125 20.75Z" stroke="#A2A2A2" stroke-width="2.25" stroke-linecap="round" stroke-linejoin="round"/>
</svg>
